<?xml version="1.0" encoding="UTF-8" standalone="no" ?>
<!DOCTYPE svg PUBLIC "-//W3C//DTD SVG 1.1//EN" "http://www.w3.org/Graphics/SVG/1.1/DTD/svg11.dtd">
<svg xmlns="http://www.w3.org/2000/svg" xmlns:xlink="http://www.w3.org/1999/xlink" version="1.1" width="1080" height="1080" viewBox="0 0 1080 1080" xml:space="preserve">
<desc>Created with Fabric.js 4.2.0</desc>
<defs>
</defs>
<rect x="0" y="0" width="100%" height="100%" fill="transparent"></rect>
<g transform="matrix(1 0 0 1 540 540)" id="ea266461-43a1-48ca-83e2-89e096f3157e"  >
<rect style="stroke: none; stroke-width: 1; stroke-dasharray: none; stroke-linecap: butt; stroke-dashoffset: 0; stroke-linejoin: miter; stroke-miterlimit: 4; fill: rgb(255,255,255); fill-rule: nonzero; opacity: 1; visibility: hidden;" vector-effect="non-scaling-stroke"  x="-540" y="-540" rx="0" ry="0" width="1080" height="1080" />
</g>
<g transform="matrix(1 0 0 1 540 540)" id="a4d61b3b-020e-44da-9b86-0258d09e5fdf"  >
</g>
<g transform="matrix(5.27 0 0 5.27 -350.63 483.78)"  >
<g style="" vector-effect="non-scaling-stroke"   >
		<g transform="matrix(1 0 0 1 38.09 -11.9)"  >
<polygon style="stroke: none; stroke-width: 1; stroke-dasharray: none; stroke-linecap: butt; stroke-dashoffset: 0; stroke-linejoin: miter; stroke-miterlimit: 4; fill: rgb(0,0,0); fill-rule: nonzero; opacity: 1;" vector-effect="non-scaling-stroke"  points="-2.38,-11.91 -2.38,-7.15 -2.38,-2.39 -2.38,2.37 -2.38,7.14 -2.38,11.91 2.38,11.91 2.38,7.14 2.38,2.37 2.38,-2.39 2.38,-7.15 2.38,-11.91 -2.38,-11.91 " />
</g>
		<g transform="matrix(1 0 0 1 0 -14.28)"  >
<polygon style="stroke: none; stroke-width: 1; stroke-dasharray: none; stroke-linecap: butt; stroke-dashoffset: 0; stroke-linejoin: miter; stroke-miterlimit: 4; fill: rgb(1,186,253); fill-rule: nonzero; opacity: 1;" vector-effect="non-scaling-stroke"  points="35.72,4.75 35.72,0 35.72,-4.77 35.72,-9.53 30.95,-9.53 26.19,-9.53 26.19,-14.29 21.43,-14.29 16.67,-14.29 11.91,-14.29 7.14,-14.29 2.38,-14.29 -2.38,-14.29 -7.14,-14.29 -11.9,-14.29 -16.66,-14.29 -21.43,-14.29 -26.19,-14.29 -26.19,-9.53 -30.95,-9.53 -35.71,-9.53 -35.71,-4.77 -35.71,0 -35.71,4.75 -35.71,9.52 -35.71,14.29 -30.95,14.29 -26.19,14.29 -26.19,9.52 -21.43,9.52 -21.43,14.29 -16.66,14.29 -11.9,14.29 -11.9,9.52 -7.14,9.52 -7.14,14.29 -2.38,14.29 2.38,14.29 2.38,9.52 7.14,9.52 7.14,14.29 11.91,14.29 16.67,14.29 16.67,9.52 21.43,9.52 21.43,14.29 26.19,14.29 30.95,14.29 35.72,14.29 35.72,9.52 35.72,4.75 " />
</g>
		<g transform="matrix(1 0 0 1 0 16.67)"  >
<polygon style="stroke: none; stroke-width: 1; stroke-dasharray: none; stroke-linecap: butt; stroke-dashoffset: 0; stroke-linejoin: miter; stroke-miterlimit: 4; fill: rgb(0,0,0); fill-rule: nonzero; opacity: 1;" vector-effect="non-scaling-stroke"  points="26.18,-16.66 21.42,-16.66 21.42,-11.91 26.18,-11.91 30.95,-11.91 30.95,-7.15 30.95,-2.39 30.95,2.38 30.95,7.14 30.95,11.9 26.18,11.9 21.42,11.9 16.66,11.9 16.66,7.14 16.66,2.38 16.66,-2.39 16.66,-7.15 16.66,-11.91 16.66,-16.66 11.91,-16.66 7.13,-16.66 7.13,-11.91 11.91,-11.91 11.91,-7.15 11.91,-2.39 11.91,2.38 11.91,7.14 11.91,11.9 7.13,11.9 7.13,7.14 7.13,2.38 7.13,-2.39 7.13,-7.15 7.13,-11.91 2.38,-11.91 2.38,-7.15 2.38,-2.39 2.38,2.38 2.38,7.14 2.38,11.9 -2.38,11.9 -2.38,7.14 -2.38,2.38 -2.38,-2.39 -2.38,-7.15 -2.38,-11.91 2.38,-11.91 2.38,-16.66 -2.38,-16.66 -7.15,-16.66 -7.15,-11.91 -7.15,-7.15 -7.15,-2.39 -7.15,2.38 -7.15,7.14 -7.15,11.9 -11.91,11.9 -16.67,11.9 -16.67,7.14 -16.67,2.38 -16.67,-2.39 -16.67,-7.15 -16.67,-11.91 -11.91,-11.91 -11.91,-16.66 -16.67,-16.66 -21.44,-16.66 -21.44,-11.91 -21.44,-7.15 -21.44,-2.39 -21.44,2.38 -21.44,7.14 -21.44,11.9 -26.2,11.9 -30.96,11.9 -30.96,7.14 -30.96,2.38 -30.96,-2.39 -30.96,-7.15 -30.96,-11.91 -26.2,-11.91 -26.2,-16.66 -30.96,-16.66 -35.72,-16.66 -35.72,-11.91 -35.72,-7.15 -35.72,-2.39 -35.72,2.38 -35.72,7.14 -35.72,11.9 -40.48,11.9 -40.48,16.66 -35.72,16.66 -30.96,16.66 -26.2,16.66 -21.44,16.66 -16.67,16.66 -11.91,16.66 -7.15,16.66 -2.38,16.66 2.38,16.66 7.13,16.66 11.91,16.66 16.66,16.66 21.42,16.66 26.18,16.66 30.95,16.66 35.71,16.66 40.48,16.66 40.48,11.9 35.71,11.9 35.71,7.14 35.71,2.38 35.71,-2.39 35.71,-7.15 35.71,-11.91 35.71,-16.66 30.95,-16.66 26.18,-16.66 " />
</g>
		<g transform="matrix(1 0 0 1 23.8 14.29)"  >
<polygon style="stroke: none; stroke-width: 1; stroke-dasharray: none; stroke-linecap: butt; stroke-dashoffset: 0; stroke-linejoin: miter; stroke-miterlimit: 4; fill: rgb(189,123,0); fill-rule: nonzero; opacity: 1;" vector-effect="non-scaling-stroke"  points="-7.14,-4.77 -7.14,-0.01 -7.14,4.76 -7.14,9.52 -7.14,14.28 -2.38,14.28 2.38,14.28 7.14,14.28 7.14,9.52 7.14,4.76 7.14,-0.01 7.14,-4.77 7.14,-9.52 2.38,-9.52 -2.38,-9.52 -2.38,-14.28 -7.14,-14.28 -7.14,-9.52 -7.14,-4.77 " />
</g>
		<g transform="matrix(1 0 0 1 19.04 -2.38)"  >
<rect style="stroke: none; stroke-width: 1; stroke-dasharray: none; stroke-linecap: butt; stroke-dashoffset: 0; stroke-linejoin: miter; stroke-miterlimit: 4; fill: rgb(0,0,0); fill-rule: nonzero; opacity: 1;" vector-effect="non-scaling-stroke"  x="-2.38" y="-2.38" rx="0" ry="0" width="4.76" height="4.76" />
</g>
		<g transform="matrix(1 0 0 1 9.52 16.67)"  >
<polygon style="stroke: none; stroke-width: 1; stroke-dasharray: none; stroke-linecap: butt; stroke-dashoffset: 0; stroke-linejoin: miter; stroke-miterlimit: 4; fill: rgb(255,224,141); fill-rule: nonzero; opacity: 1;" vector-effect="non-scaling-stroke"  points="-2.39,-2.38 -2.39,2.38 -2.39,7.15 -2.39,11.91 2.38,11.91 2.38,7.15 2.38,2.38 2.38,-2.38 2.38,-7.14 2.38,-11.9 -2.39,-11.9 -2.39,-7.14 -2.39,-2.38 " />
</g>
		<g transform="matrix(1 0 0 1 4.75 2.39)"  >
<rect style="stroke: none; stroke-width: 1; stroke-dasharray: none; stroke-linecap: butt; stroke-dashoffset: 0; stroke-linejoin: miter; stroke-miterlimit: 4; fill: rgb(255,224,141); fill-rule: nonzero; opacity: 1;" vector-effect="non-scaling-stroke"  x="-2.38" y="-2.38" rx="0" ry="0" width="4.76" height="4.76" />
</g>
		<g transform="matrix(1 0 0 1 4.75 -2.38)"  >
<rect style="stroke: none; stroke-width: 1; stroke-dasharray: none; stroke-linecap: butt; stroke-dashoffset: 0; stroke-linejoin: miter; stroke-miterlimit: 4; fill: rgb(0,0,0); fill-rule: nonzero; opacity: 1;" vector-effect="non-scaling-stroke"  x="-2.38" y="-2.38" rx="0" ry="0" width="4.76" height="4.76" />
</g>
		<g transform="matrix(1 0 0 1 0 16.67)"  >
<polygon style="stroke: none; stroke-width: 1; stroke-dasharray: none; stroke-linecap: butt; stroke-dashoffset: 0; stroke-linejoin: miter; stroke-miterlimit: 4; fill: rgb(189,123,0); fill-rule: nonzero; opacity: 1;" vector-effect="non-scaling-stroke"  points="-2.38,-7.14 -2.38,-2.38 -2.38,2.38 -2.38,7.15 -2.38,11.91 2.38,11.91 2.38,7.15 2.38,2.38 2.38,-2.38 2.38,-7.14 2.38,-11.9 -2.38,-11.9 -2.38,-7.14 " />
</g>
		<g transform="matrix(1 0 0 1 -9.53 -2.38)"  >
<rect style="stroke: none; stroke-width: 1; stroke-dasharray: none; stroke-linecap: butt; stroke-dashoffset: 0; stroke-linejoin: miter; stroke-miterlimit: 4; fill: rgb(0,0,0); fill-rule: nonzero; opacity: 1;" vector-effect="non-scaling-stroke"  x="-2.38" y="-2.38" rx="0" ry="0" width="4.76" height="4.76" />
</g>
		<g transform="matrix(1 0 0 1 -11.9 14.29)"  >
<polygon style="stroke: none; stroke-width: 1; stroke-dasharray: none; stroke-linecap: butt; stroke-dashoffset: 0; stroke-linejoin: miter; stroke-miterlimit: 4; fill: rgb(255,224,141); fill-rule: nonzero; opacity: 1;" vector-effect="non-scaling-stroke"  points="-4.76,-9.52 -4.76,-4.77 -4.76,-0.01 -4.76,4.76 -4.76,9.52 -4.76,14.28 0,14.28 4.76,14.28 4.76,9.52 4.76,4.76 4.76,-0.01 4.76,-4.77 4.76,-9.52 4.76,-14.28 0,-14.28 0,-9.52 -4.76,-9.52 " />
</g>
		<g transform="matrix(1 0 0 1 4.76 -28.57)"  >
<polygon style="stroke: none; stroke-width: 1; stroke-dasharray: none; stroke-linecap: butt; stroke-dashoffset: 0; stroke-linejoin: miter; stroke-miterlimit: 4; fill: rgb(0,0,0); fill-rule: nonzero; opacity: 1;" vector-effect="non-scaling-stroke"  points="-21.43,0 -16.66,0 -11.91,0 -7.14,0 -2.38,0 2.38,0 7.15,0 11.91,0 16.66,0 21.42,0 21.42,4.76 26.19,4.76 30.95,4.76 30.95,0 26.19,0 26.19,-4.76 21.42,-4.76 16.66,-4.76 11.91,-4.76 7.15,-4.76 2.38,-4.76 -2.38,-4.76 -7.14,-4.76 -11.91,-4.76 -16.66,-4.76 -21.43,-4.76 -26.2,-4.76 -30.95,-4.76 -30.95,0 -26.2,0 -21.43,0 " />
</g>
		<g transform="matrix(1 0 0 1 -23.82 -2.38)"  >
<rect style="stroke: none; stroke-width: 1; stroke-dasharray: none; stroke-linecap: butt; stroke-dashoffset: 0; stroke-linejoin: miter; stroke-miterlimit: 4; fill: rgb(0,0,0); fill-rule: nonzero; opacity: 1;" vector-effect="non-scaling-stroke"  x="-2.38" y="-2.38" rx="0" ry="0" width="4.76" height="4.76" />
</g>
		<g transform="matrix(1 0 0 1 -26.2 14.29)"  >
<polygon style="stroke: none; stroke-width: 1; stroke-dasharray: none; stroke-linecap: butt; stroke-dashoffset: 0; stroke-linejoin: miter; stroke-miterlimit: 4; fill: rgb(189,123,0); fill-rule: nonzero; opacity: 1;" vector-effect="non-scaling-stroke"  points="-4.76,-9.52 -4.76,-4.77 -4.76,-0.01 -4.76,4.76 -4.76,9.52 -4.76,14.28 0,14.28 4.76,14.28 4.76,9.52 4.76,4.76 4.76,-0.01 4.76,-4.77 4.76,-9.52 4.76,-14.28 0,-14.28 0,-9.52 -4.76,-9.52 " />
</g>
		<g transform="matrix(1 0 0 1 -30.96 -26.19)"  >
<polygon style="stroke: none; stroke-width: 1; stroke-dasharray: none; stroke-linecap: butt; stroke-dashoffset: 0; stroke-linejoin: miter; stroke-miterlimit: 4; fill: rgb(0,0,0); fill-rule: nonzero; opacity: 1;" vector-effect="non-scaling-stroke"  points="4.76,2.38 4.76,-2.38 0,-2.38 -4.76,-2.38 -4.76,2.38 0,2.38 4.76,2.38 " />
</g>
		<g transform="matrix(1 0 0 1 -38.09 -11.9)"  >
<polygon style="stroke: none; stroke-width: 1; stroke-dasharray: none; stroke-linecap: butt; stroke-dashoffset: 0; stroke-linejoin: miter; stroke-miterlimit: 4; fill: rgb(0,0,0); fill-rule: nonzero; opacity: 1;" vector-effect="non-scaling-stroke"  points="2.38,2.37 2.38,-2.39 2.38,-7.15 2.38,-11.91 -2.38,-11.91 -2.38,-7.15 -2.38,-2.39 -2.38,2.37 -2.38,7.14 -2.38,11.91 2.38,11.91 2.38,7.14 2.38,2.37 " />
</g>
</g>
</g>
<g transform="matrix(5.96 0 0 5.96 510.41 498.58)"  >
<g style="" vector-effect="non-scaling-stroke"   >
		<g transform="matrix(1 0 0 1 2.39 35.71)"  >
<polygon style="stroke: none; stroke-width: 1; stroke-dasharray: none; stroke-linecap: butt; stroke-dashoffset: 0; stroke-linejoin: miter; stroke-miterlimit: 4; fill: rgb(0,0,0); fill-rule: nonzero; opacity: 1;" vector-effect="non-scaling-stroke"  points="28.57,-11.91 28.57,-7.15 28.57,-2.38 23.81,-2.38 23.81,2.38 19.05,2.38 14.28,2.38 14.28,7.14 9.52,7.14 4.76,7.14 0,7.14 -4.76,7.14 -4.76,2.38 -9.52,2.38 -14.29,2.38 -19.05,2.38 -23.81,2.38 -28.57,2.38 -33.33,2.38 -33.33,7.14 -28.57,7.14 -23.81,7.14 -19.05,7.14 -14.29,7.14 -9.52,7.14 -9.52,11.9 -4.76,11.9 0,11.9 4.76,11.9 9.52,11.9 14.28,11.9 19.05,11.9 19.05,7.14 23.81,7.14 28.57,7.14 28.57,2.38 33.33,2.38 33.33,-2.38 33.33,-7.15 33.33,-11.91 28.57,-11.91 " />
</g>
		<g transform="matrix(1 0 0 1 14.29 33.34)"  >
<polygon style="stroke: none; stroke-width: 1; stroke-dasharray: none; stroke-linecap: butt; stroke-dashoffset: 0; stroke-linejoin: miter; stroke-miterlimit: 4; fill: rgb(44,124,41); fill-rule: nonzero; opacity: 1;" vector-effect="non-scaling-stroke"  points="11.9,-4.77 7.14,-4.77 2.38,-4.77 -2.39,-4.77 -7.15,-4.77 -7.15,0 -11.91,0 -11.91,-4.77 -16.66,-4.77 -16.66,0 -16.66,4.76 -16.66,9.52 -11.91,9.52 -7.15,9.52 -2.39,9.52 2.38,9.52 2.38,4.76 -2.39,4.76 -2.39,0 2.38,0 2.38,4.76 7.14,4.76 11.9,4.76 11.9,0 16.66,0 16.66,-4.77 16.66,-9.53 11.9,-9.53 11.9,-4.77 " />
</g>
		<g transform="matrix(1 0 0 1 23.81 -9.52)"  >
<polygon style="stroke: none; stroke-width: 1; stroke-dasharray: none; stroke-linecap: butt; stroke-dashoffset: 0; stroke-linejoin: miter; stroke-miterlimit: 4; fill: rgb(0,0,0); fill-rule: nonzero; opacity: 1;" vector-effect="non-scaling-stroke"  points="2.38,-23.81 2.38,-19.05 2.38,-14.29 2.38,-9.52 2.38,-4.76 -2.38,-4.76 -2.38,0 -7.15,0 -7.15,4.76 -7.15,9.52 -2.38,9.52 -2.38,4.76 2.38,4.76 2.38,9.52 2.38,14.29 2.38,19.05 2.38,23.81 2.38,28.57 2.38,33.33 7.14,33.33 7.14,28.57 7.14,23.81 7.14,19.05 7.14,14.29 7.14,9.52 7.14,4.76 7.14,0 7.14,-4.76 7.14,-9.52 7.14,-14.29 7.14,-19.05 7.14,-23.81 7.14,-28.57 7.14,-33.33 2.38,-33.33 2.38,-28.57 2.38,-23.81 " />
</g>
		<g transform="matrix(1 0 0 1 23.81 26.19)"  >
<rect style="stroke: none; stroke-width: 1; stroke-dasharray: none; stroke-linecap: butt; stroke-dashoffset: 0; stroke-linejoin: miter; stroke-miterlimit: 4; fill: rgb(0,0,0); fill-rule: nonzero; opacity: 1;" vector-effect="non-scaling-stroke"  x="-2.38" y="-2.38" rx="0" ry="0" width="4.76" height="4.76" />
</g>
		<g transform="matrix(1 0 0 1 23.82 19.05)"  >
<polygon style="stroke: none; stroke-width: 1; stroke-dasharray: none; stroke-linecap: butt; stroke-dashoffset: 0; stroke-linejoin: miter; stroke-miterlimit: 4; fill: rgb(140,137,162); fill-rule: nonzero; opacity: 1;" vector-effect="non-scaling-stroke"  points="-2.38,0 -2.38,4.76 2.38,4.76 2.38,0 2.38,-4.76 -2.38,-4.76 -2.38,0 " />
</g>
		<g transform="matrix(1 0 0 1 23.81 11.91)"  >
<rect style="stroke: none; stroke-width: 1; stroke-dasharray: none; stroke-linecap: butt; stroke-dashoffset: 0; stroke-linejoin: miter; stroke-miterlimit: 4; fill: rgb(182,180,211); fill-rule: nonzero; opacity: 1;" vector-effect="non-scaling-stroke"  x="-2.38" y="-2.38" rx="0" ry="0" width="4.76" height="4.76" />
</g>
		<g transform="matrix(1 0 0 1 23.81 -2.38)"  >
<rect style="stroke: none; stroke-width: 1; stroke-dasharray: none; stroke-linecap: butt; stroke-dashoffset: 0; stroke-linejoin: miter; stroke-miterlimit: 4; fill: rgb(182,180,211); fill-rule: nonzero; opacity: 1;" vector-effect="non-scaling-stroke"  x="-2.38" y="-2.38" rx="0" ry="0" width="4.76" height="4.76" />
</g>
		<g transform="matrix(1 0 0 1 23.81 -16.66)"  >
<rect style="stroke: none; stroke-width: 1; stroke-dasharray: none; stroke-linecap: butt; stroke-dashoffset: 0; stroke-linejoin: miter; stroke-miterlimit: 4; fill: rgb(182,180,211); fill-rule: nonzero; opacity: 1;" vector-effect="non-scaling-stroke"  x="-2.38" y="-2.38" rx="0" ry="0" width="4.76" height="4.76" />
</g>
		<g transform="matrix(1 0 0 1 23.81 -40.47)"  >
<rect style="stroke: none; stroke-width: 1; stroke-dasharray: none; stroke-linecap: butt; stroke-dashoffset: 0; stroke-linejoin: miter; stroke-miterlimit: 4; fill: rgb(182,180,211); fill-rule: nonzero; opacity: 1;" vector-effect="non-scaling-stroke"  x="-2.38" y="-2.38" rx="0" ry="0" width="4.76" height="4.76" />
</g>
		<g transform="matrix(1 0 0 1 21.43 -45.24)"  >
<polygon style="stroke: none; stroke-width: 1; stroke-dasharray: none; stroke-linecap: butt; stroke-dashoffset: 0; stroke-linejoin: miter; stroke-miterlimit: 4; fill: rgb(0,0,0); fill-rule: nonzero; opacity: 1;" vector-effect="non-scaling-stroke"  points="4.77,2.38 4.77,-2.38 0.01,-2.38 -4.76,-2.38 -4.76,2.38 0.01,2.38 4.77,2.38 " />
</g>
		<g transform="matrix(1 0 0 1 16.67 26.19)"  >
<polygon style="stroke: none; stroke-width: 1; stroke-dasharray: none; stroke-linecap: butt; stroke-dashoffset: 0; stroke-linejoin: miter; stroke-miterlimit: 4; fill: rgb(172,242,171); fill-rule: nonzero; opacity: 1;" vector-effect="non-scaling-stroke"  points="0,-2.38 -4.77,-2.38 -4.77,2.38 0,2.38 4.77,2.38 4.77,-2.38 0,-2.38 " />
</g>
		<g transform="matrix(1 0 0 1 16.67 19.05)"  >
<polygon style="stroke: none; stroke-width: 1; stroke-dasharray: none; stroke-linecap: butt; stroke-dashoffset: 0; stroke-linejoin: miter; stroke-miterlimit: 4; fill: rgb(0,0,0); fill-rule: nonzero; opacity: 1;" vector-effect="non-scaling-stroke"  points="4.77,4.76 4.77,0 4.77,-4.76 0,-4.76 0,0 -4.77,0 -4.77,4.76 0,4.76 4.77,4.76 " />
</g>
		<g transform="matrix(1 0 0 1 19.05 2.38)"  >
<rect style="stroke: none; stroke-width: 1; stroke-dasharray: none; stroke-linecap: butt; stroke-dashoffset: 0; stroke-linejoin: miter; stroke-miterlimit: 4; fill: rgb(182,180,211); fill-rule: nonzero; opacity: 1;" vector-effect="non-scaling-stroke"  x="-2.385" y="-2.385" rx="0" ry="0" width="4.77" height="4.77" />
</g>
		<g transform="matrix(1 0 0 1 19.05 -11.9)"  >
<rect style="stroke: none; stroke-width: 1; stroke-dasharray: none; stroke-linecap: butt; stroke-dashoffset: 0; stroke-linejoin: miter; stroke-miterlimit: 4; fill: rgb(182,180,211); fill-rule: nonzero; opacity: 1;" vector-effect="non-scaling-stroke"  x="-2.385" y="-2.38" rx="0" ry="0" width="4.77" height="4.76" />
</g>
		<g transform="matrix(1 0 0 1 21.43 -30.95)"  >
<polygon style="stroke: none; stroke-width: 1; stroke-dasharray: none; stroke-linecap: butt; stroke-dashoffset: 0; stroke-linejoin: miter; stroke-miterlimit: 4; fill: rgb(140,137,162); fill-rule: nonzero; opacity: 1;" vector-effect="non-scaling-stroke"  points="-4.76,-2.38 0.01,-2.38 0.01,2.38 0.01,7.14 0.01,11.91 4.77,11.91 4.77,7.14 4.77,2.38 4.77,-2.38 4.77,-7.14 0.01,-7.14 0.01,-11.9 -4.76,-11.9 -4.76,-7.14 -4.76,-2.38 " />
</g>
		<g transform="matrix(1 0 0 1 14.28 35.72)"  >
<rect style="stroke: none; stroke-width: 1; stroke-dasharray: none; stroke-linecap: butt; stroke-dashoffset: 0; stroke-linejoin: miter; stroke-miterlimit: 4; fill: rgb(172,242,171); fill-rule: nonzero; opacity: 1;" vector-effect="non-scaling-stroke"  x="-2.38" y="-2.38" rx="0" ry="0" width="4.76" height="4.76" />
</g>
		<g transform="matrix(1 0 0 1 9.52 26.19)"  >
<rect style="stroke: none; stroke-width: 1; stroke-dasharray: none; stroke-linecap: butt; stroke-dashoffset: 0; stroke-linejoin: miter; stroke-miterlimit: 4; fill: rgb(0,0,0); fill-rule: nonzero; opacity: 1;" vector-effect="non-scaling-stroke"  x="-2.38" y="-2.38" rx="0" ry="0" width="4.76" height="4.76" />
</g>
		<g transform="matrix(1 0 0 1 9.52 16.67)"  >
<rect style="stroke: none; stroke-width: 1; stroke-dasharray: none; stroke-linecap: butt; stroke-dashoffset: 0; stroke-linejoin: miter; stroke-miterlimit: 4; fill: rgb(182,180,211); fill-rule: nonzero; opacity: 1;" vector-effect="non-scaling-stroke"  x="-2.38" y="-2.38" rx="0" ry="0" width="4.76" height="4.76" />
</g>
		<g transform="matrix(1 0 0 1 4.76 30.95)"  >
<rect style="stroke: none; stroke-width: 1; stroke-dasharray: none; stroke-linecap: butt; stroke-dashoffset: 0; stroke-linejoin: miter; stroke-miterlimit: 4; fill: rgb(0,0,0); fill-rule: nonzero; opacity: 1;" vector-effect="non-scaling-stroke"  x="-2.38" y="-2.385" rx="0" ry="0" width="4.76" height="4.77" />
</g>
		<g transform="matrix(1 0 0 1 2.38 -26.19)"  >
<polygon style="stroke: none; stroke-width: 1; stroke-dasharray: none; stroke-linecap: butt; stroke-dashoffset: 0; stroke-linejoin: miter; stroke-miterlimit: 4; fill: rgb(182,180,211); fill-rule: nonzero; opacity: 1;" vector-effect="non-scaling-stroke"  points="4.76,2.38 4.76,-2.38 0,-2.38 -4.76,-2.38 -4.76,2.38 0,2.38 4.76,2.38 " />
</g>
		<g transform="matrix(1 0 0 1 2.38 -45.24)"  >
<polygon style="stroke: none; stroke-width: 1; stroke-dasharray: none; stroke-linecap: butt; stroke-dashoffset: 0; stroke-linejoin: miter; stroke-miterlimit: 4; fill: rgb(0,0,0); fill-rule: nonzero; opacity: 1;" vector-effect="non-scaling-stroke"  points="4.76,2.38 4.76,-2.38 0,-2.38 -4.76,-2.38 -4.76,2.38 0,2.38 4.76,2.38 " />
</g>
		<g transform="matrix(1 0 0 1 -2.38 26.19)"  >
<polygon style="stroke: none; stroke-width: 1; stroke-dasharray: none; stroke-linecap: butt; stroke-dashoffset: 0; stroke-linejoin: miter; stroke-miterlimit: 4; fill: rgb(0,0,0); fill-rule: nonzero; opacity: 1;" vector-effect="non-scaling-stroke"  points="0,-2.38 -4.76,-2.38 -4.76,2.38 0,2.38 4.76,2.38 4.76,-2.38 0,-2.38 " />
</g>
		<g transform="matrix(1 0 0 1 4.76 -4.76)"  >
<polygon style="stroke: none; stroke-width: 1; stroke-dasharray: none; stroke-linecap: butt; stroke-dashoffset: 0; stroke-linejoin: miter; stroke-miterlimit: 4; fill: rgb(0,0,0); fill-rule: nonzero; opacity: 1;" vector-effect="non-scaling-stroke"  points="-7.14,0 -7.14,4.76 -2.38,4.76 2.38,4.76 7.14,4.76 7.14,0 7.14,-4.76 2.38,-4.76 -2.38,-4.76 -7.14,-4.76 -7.14,0 " />
</g>
		<g transform="matrix(1 0 0 1 -2.38 -11.9)"  >
<polygon style="stroke: none; stroke-width: 1; stroke-dasharray: none; stroke-linecap: butt; stroke-dashoffset: 0; stroke-linejoin: miter; stroke-miterlimit: 4; fill: rgb(182,180,211); fill-rule: nonzero; opacity: 1;" vector-effect="non-scaling-stroke"  points="4.76,2.38 4.76,-2.38 0,-2.38 -4.76,-2.38 -4.76,2.38 0,2.38 4.76,2.38 " />
</g>
		<g transform="matrix(1 0 0 1 2.38 -35.71)"  >
<polygon style="stroke: none; stroke-width: 1; stroke-dasharray: none; stroke-linecap: butt; stroke-dashoffset: 0; stroke-linejoin: miter; stroke-miterlimit: 4; fill: rgb(140,137,162); fill-rule: nonzero; opacity: 1;" vector-effect="non-scaling-stroke"  points="-4.76,-2.38 -4.76,2.38 0,2.38 4.76,2.38 4.76,-2.38 0,-2.38 -4.76,-2.38 " />
</g>
		<g transform="matrix(1 0 0 1 2.38 -40.47)"  >
<polygon style="stroke: none; stroke-width: 1; stroke-dasharray: none; stroke-linecap: butt; stroke-dashoffset: 0; stroke-linejoin: miter; stroke-miterlimit: 4; fill: rgb(182,180,211); fill-rule: nonzero; opacity: 1;" vector-effect="non-scaling-stroke"  points="0,2.38 4.76,2.38 4.76,-2.38 0,-2.38 -4.76,-2.38 -4.76,2.38 0,2.38 " />
</g>
		<g transform="matrix(1 0 0 1 -4.76 33.33)"  >
<polygon style="stroke: none; stroke-width: 1; stroke-dasharray: none; stroke-linecap: butt; stroke-dashoffset: 0; stroke-linejoin: miter; stroke-miterlimit: 4; fill: rgb(172,242,171); fill-rule: nonzero; opacity: 1;" vector-effect="non-scaling-stroke"  points="2.38,-4.77 -2.38,-4.77 -2.38,0 -2.38,4.77 2.38,4.77 2.38,0 2.38,-4.77 " />
</g>
		<g transform="matrix(1 0 0 1 -4.76 11.91)"  >
<rect style="stroke: none; stroke-width: 1; stroke-dasharray: none; stroke-linecap: butt; stroke-dashoffset: 0; stroke-linejoin: miter; stroke-miterlimit: 4; fill: rgb(182,180,211); fill-rule: nonzero; opacity: 1;" vector-effect="non-scaling-stroke"  x="-2.38" y="-2.38" rx="0" ry="0" width="4.76" height="4.76" />
</g>
		<g transform="matrix(1 0 0 1 -4.76 -4.76)"  >
<polygon style="stroke: none; stroke-width: 1; stroke-dasharray: none; stroke-linecap: butt; stroke-dashoffset: 0; stroke-linejoin: miter; stroke-miterlimit: 4; fill: rgb(140,137,162); fill-rule: nonzero; opacity: 1;" vector-effect="non-scaling-stroke"  points="2.38,0 2.38,-4.76 -2.38,-4.76 -2.38,0 -2.38,4.76 2.38,4.76 2.38,0 " />
</g>
		<g transform="matrix(1 0 0 1 -9.52 30.95)"  >
<rect style="stroke: none; stroke-width: 1; stroke-dasharray: none; stroke-linecap: butt; stroke-dashoffset: 0; stroke-linejoin: miter; stroke-miterlimit: 4; fill: rgb(0,0,0); fill-rule: nonzero; opacity: 1;" vector-effect="non-scaling-stroke"  x="-2.385" y="-2.385" rx="0" ry="0" width="4.77" height="4.77" />
</g>
		<g transform="matrix(1 0 0 1 4.77 2.38)"  >
<path style="stroke: none; stroke-width: 1; stroke-dasharray: none; stroke-linecap: butt; stroke-dashoffset: 0; stroke-linejoin: miter; stroke-miterlimit: 4; fill: rgb(140,137,162); fill-rule: nonzero; opacity: 1;" vector-effect="non-scaling-stroke"  transform=" translate(-52, -66.66)" d="M 40.1 88.09 L 49.620000000000005 88.09 L 49.620000000000005 92.85000000000001 L 54.38 92.85000000000001 L 54.38 88.09 L 59.14 88.09 L 59.14 83.33 L 54.38 83.33 L 54.38 78.57 L 59.14 78.57 L 59.14 83.33 L 63.9 83.33 L 63.9 78.57 L 68.67 78.57 L 68.67 73.81 L 73.43 73.81 L 73.43 64.28 L 68.67 64.28 L 68.67 69.05 L 63.9 69.05 L 63.9 50 L 68.67 50 L 68.67 45.24 L 54.38 45.24 L 54.38 40.47 L 44.86 40.47 L 44.86 45.239999999999995 L 30.57 45.239999999999995 L 30.57 54.75999999999999 L 40.1 54.75999999999999 L 40.1 50 L 49.620000000000005 50 L 49.620000000000005 54.76 L 59.14 54.76 L 59.14 69.05 L 54.38 69.05 L 54.38 73.81 L 49.62 73.81 L 49.62 69.05 L 30.619999999999997 69.05 L 30.619999999999997 73.81 L 35.379999999999995 73.81 L 35.379999999999995 78.57000000000001 L 30.57 78.57000000000001 L 30.57 83.33000000000001 L 35.33 83.33000000000001 L 35.33 92.85000000000001 L 40.1 92.85000000000001 Z M 40.1 73.81 L 44.86 73.81 L 44.86 78.57000000000001 L 40.1 78.57000000000001 Z" stroke-linecap="round" />
</g>
		<g transform="matrix(1 0 0 1 2.38 -30.95)"  >
<polygon style="stroke: none; stroke-width: 1; stroke-dasharray: none; stroke-linecap: butt; stroke-dashoffset: 0; stroke-linejoin: miter; stroke-miterlimit: 4; fill: rgb(0,0,0); fill-rule: nonzero; opacity: 1;" vector-effect="non-scaling-stroke"  points="-14.29,-2.38 -19.05,-2.38 -19.05,2.38 -19.05,7.14 -19.05,11.91 -14.29,11.91 -9.52,11.91 -4.76,11.91 -4.76,7.14 -4.76,2.38 0,2.38 4.76,2.38 4.76,7.14 4.76,11.91 9.52,11.91 14.28,11.91 19.05,11.91 19.05,7.14 19.05,2.38 19.05,-2.38 14.28,-2.38 14.28,-7.14 14.28,-11.9 9.52,-11.9 4.76,-11.9 4.76,-7.14 4.76,-2.38 0,-2.38 -4.76,-2.38 -4.76,-7.14 -4.76,-11.9 -9.52,-11.9 -14.29,-11.9 -14.29,-7.14 -14.29,-2.38 " />
</g>
		<g transform="matrix(1 0 0 1 -14.29 23.81)"  >
<polygon style="stroke: none; stroke-width: 1; stroke-dasharray: none; stroke-linecap: butt; stroke-dashoffset: 0; stroke-linejoin: miter; stroke-miterlimit: 4; fill: rgb(0,0,0); fill-rule: nonzero; opacity: 1;" vector-effect="non-scaling-stroke"  points="2.38,-4.76 -2.38,-4.76 -2.38,0 -2.38,4.76 2.38,4.76 2.38,0 2.38,-4.76 " />
</g>
		<g transform="matrix(1 0 0 1 -4.76 4.76)"  >
<polygon style="stroke: none; stroke-width: 1; stroke-dasharray: none; stroke-linecap: butt; stroke-dashoffset: 0; stroke-linejoin: miter; stroke-miterlimit: 4; fill: rgb(182,180,211); fill-rule: nonzero; opacity: 1;" vector-effect="non-scaling-stroke"  points="-7.14,4.77 -11.9,4.77 -11.9,0.01 -7.14,0.01 -2.38,0.01 2.39,0.01 7.15,0.01 7.15,4.77 11.91,4.77 11.91,0.01 16.66,0.01 16.66,-4.77 11.91,-4.77 7.15,-4.77 2.39,-4.77 -2.38,-4.77 -7.14,-4.77 -11.9,-4.77 -11.9,-9.52 -16.66,-9.52 -16.66,-4.77 -16.66,0.01 -16.66,4.77 -16.66,9.52 -11.9,9.52 -7.14,9.52 -7.14,4.77 " />
</g>
		<g transform="matrix(1 0 0 1 -14.29 -35.71)"  >
<rect style="stroke: none; stroke-width: 1; stroke-dasharray: none; stroke-linecap: butt; stroke-dashoffset: 0; stroke-linejoin: miter; stroke-miterlimit: 4; fill: rgb(140,137,162); fill-rule: nonzero; opacity: 1;" vector-effect="non-scaling-stroke"  x="-2.38" y="-2.38" rx="0" ry="0" width="4.76" height="4.76" />
</g>
		<g transform="matrix(1 0 0 1 -14.29 -40.47)"  >
<rect style="stroke: none; stroke-width: 1; stroke-dasharray: none; stroke-linecap: butt; stroke-dashoffset: 0; stroke-linejoin: miter; stroke-miterlimit: 4; fill: rgb(182,180,211); fill-rule: nonzero; opacity: 1;" vector-effect="non-scaling-stroke"  x="-2.38" y="-2.38" rx="0" ry="0" width="4.76" height="4.76" />
</g>
		<g transform="matrix(1 0 0 1 -14.29 -45.24)"  >
<rect style="stroke: none; stroke-width: 1; stroke-dasharray: none; stroke-linecap: butt; stroke-dashoffset: 0; stroke-linejoin: miter; stroke-miterlimit: 4; fill: rgb(0,0,0); fill-rule: nonzero; opacity: 1;" vector-effect="non-scaling-stroke"  x="-2.38" y="-2.385" rx="0" ry="0" width="4.76" height="4.77" />
</g>
		<g transform="matrix(1 0 0 1 -16.66 -11.9)"  >
<polygon style="stroke: none; stroke-width: 1; stroke-dasharray: none; stroke-linecap: butt; stroke-dashoffset: 0; stroke-linejoin: miter; stroke-miterlimit: 4; fill: rgb(0,0,0); fill-rule: nonzero; opacity: 1;" vector-effect="non-scaling-stroke"  points="0,30.95 0,26.19 -4.77,26.19 -4.77,21.43 -4.77,16.67 -4.77,11.9 -4.77,7.14 0,7.14 0,11.9 4.75,11.9 9.52,11.9 9.52,7.14 9.52,2.38 4.75,2.38 0,2.38 0,-2.38 -4.77,-2.38 -4.77,-7.14 -4.77,-11.91 -4.77,-16.67 -4.77,-21.43 -4.77,-26.19 0,-26.19 0,-30.95 -4.77,-30.95 -9.53,-30.95 -9.53,-26.19 -9.53,-21.43 -9.53,-16.67 -9.53,-11.91 -9.53,-7.14 -9.53,-2.38 -9.53,2.38 -9.53,7.14 -9.53,11.9 -9.53,16.67 -9.53,21.43 -9.53,26.19 -9.53,30.95 -4.77,30.95 0,30.95 " />
</g>
		<g transform="matrix(1 0 0 1 -19.05 -16.66)"  >
<rect style="stroke: none; stroke-width: 1; stroke-dasharray: none; stroke-linecap: butt; stroke-dashoffset: 0; stroke-linejoin: miter; stroke-miterlimit: 4; fill: rgb(182,180,211); fill-rule: nonzero; opacity: 1;" vector-effect="non-scaling-stroke"  x="-2.38" y="-2.38" rx="0" ry="0" width="4.76" height="4.76" />
</g>
		<g transform="matrix(1 0 0 1 -19.05 -26.19)"  >
<polygon style="stroke: none; stroke-width: 1; stroke-dasharray: none; stroke-linecap: butt; stroke-dashoffset: 0; stroke-linejoin: miter; stroke-miterlimit: 4; fill: rgb(140,137,162); fill-rule: nonzero; opacity: 1;" vector-effect="non-scaling-stroke"  points="2.38,2.38 2.38,-2.38 2.38,-7.14 -2.38,-7.14 -2.38,-2.38 -2.38,2.38 -2.38,7.14 2.38,7.14 2.38,2.38 " />
</g>
		<g transform="matrix(1 0 0 1 -19.05 -35.71)"  >
<rect style="stroke: none; stroke-width: 1; stroke-dasharray: none; stroke-linecap: butt; stroke-dashoffset: 0; stroke-linejoin: miter; stroke-miterlimit: 4; fill: rgb(182,180,211); fill-rule: nonzero; opacity: 1;" vector-effect="non-scaling-stroke"  x="-2.38" y="-2.38" rx="0" ry="0" width="4.76" height="4.76" />
</g>
		<g transform="matrix(1 0 0 1 -19.04 30.95)"  >
<polygon style="stroke: none; stroke-width: 1; stroke-dasharray: none; stroke-linecap: butt; stroke-dashoffset: 0; stroke-linejoin: miter; stroke-miterlimit: 4; fill: rgb(44,124,41); fill-rule: nonzero; opacity: 1;" vector-effect="non-scaling-stroke"  points="-2.38,7.14 2.38,7.14 7.14,7.14 11.91,7.14 11.91,2.38 7.14,2.38 7.14,-2.39 2.38,-2.39 2.38,-7.14 -2.38,-7.14 -7.14,-7.14 -7.14,-2.39 -7.14,2.38 -11.9,2.38 -11.9,7.14 -7.14,7.14 -2.38,7.14 " />
</g>
		<g transform="matrix(1 0 0 1 -21.43 21.43)"  >
<polygon style="stroke: none; stroke-width: 1; stroke-dasharray: none; stroke-linecap: butt; stroke-dashoffset: 0; stroke-linejoin: miter; stroke-miterlimit: 4; fill: rgb(172,242,171); fill-rule: nonzero; opacity: 1;" vector-effect="non-scaling-stroke"  points="0,2.38 4.76,2.38 4.76,-2.38 0,-2.38 -4.76,-2.38 -4.76,2.38 0,2.38 " />
</g>
		<g transform="matrix(1 0 0 1 -28.57 30.95)"  >
<rect style="stroke: none; stroke-width: 1; stroke-dasharray: none; stroke-linecap: butt; stroke-dashoffset: 0; stroke-linejoin: miter; stroke-miterlimit: 4; fill: rgb(172,242,171); fill-rule: nonzero; opacity: 1;" vector-effect="non-scaling-stroke"  x="-2.38" y="-2.385" rx="0" ry="0" width="4.76" height="4.77" />
</g>
		<g transform="matrix(1 0 0 1 -28.57 23.81)"  >
<polygon style="stroke: none; stroke-width: 1; stroke-dasharray: none; stroke-linecap: butt; stroke-dashoffset: 0; stroke-linejoin: miter; stroke-miterlimit: 4; fill: rgb(0,0,0); fill-rule: nonzero; opacity: 1;" vector-effect="non-scaling-stroke"  points="2.38,0 2.38,-4.76 -2.38,-4.76 -2.38,0 -2.38,4.76 2.38,4.76 2.38,0 " />
</g>
		<g transform="matrix(1 0 0 1 -33.33 33.33)"  >
<polygon style="stroke: none; stroke-width: 1; stroke-dasharray: none; stroke-linecap: butt; stroke-dashoffset: 0; stroke-linejoin: miter; stroke-miterlimit: 4; fill: rgb(0,0,0); fill-rule: nonzero; opacity: 1;" vector-effect="non-scaling-stroke"  points="2.38,-4.77 -2.38,-4.77 -2.38,0 -2.38,4.77 2.38,4.77 2.38,0 2.38,-4.77 " />
</g>
</g>
</g>
</svg>