<?xml version="1.0" encoding="UTF-8" standalone="no" ?>
<!DOCTYPE svg PUBLIC "-//W3C//DTD SVG 1.1//EN" "http://www.w3.org/Graphics/SVG/1.1/DTD/svg11.dtd">
<svg xmlns="http://www.w3.org/2000/svg" xmlns:xlink="http://www.w3.org/1999/xlink" version="1.1" width="1080" height="1080" viewBox="0 0 1080 1080" xml:space="preserve">
<desc>Created with Fabric.js 4.2.0</desc>
<defs>
</defs>
<rect x="0" y="0" width="100%" height="100%" fill="transparent"></rect>
<g transform="matrix(1 0 0 1 540 540)" id="ea266461-43a1-48ca-83e2-89e096f3157e"  >
<rect style="stroke: none; stroke-width: 1; stroke-dasharray: none; stroke-linecap: butt; stroke-dashoffset: 0; stroke-linejoin: miter; stroke-miterlimit: 4; fill: rgb(255,255,255); fill-rule: nonzero; opacity: 1; visibility: hidden;" vector-effect="non-scaling-stroke"  x="-540" y="-540" rx="0" ry="0" width="1080" height="1080" />
</g>
<g transform="matrix(1 0 0 1 540 540)" id="a4d61b3b-020e-44da-9b86-0258d09e5fdf"  >
</g>
<g transform="matrix(5.27 0 0 5.27 540 540)"  >
<g style="" vector-effect="non-scaling-stroke"   >
		<g transform="matrix(1 0 0 1 38.09 -11.9)"  >
<polygon style="stroke: none; stroke-width: 1; stroke-dasharray: none; stroke-linecap: butt; stroke-dashoffset: 0; stroke-linejoin: miter; stroke-miterlimit: 4; fill: rgb(0,0,0); fill-rule: nonzero; opacity: 1;" vector-effect="non-scaling-stroke"  points="-2.38,-11.91 -2.38,-7.15 -2.38,-2.39 -2.38,2.37 -2.38,7.14 -2.38,11.91 2.38,11.91 2.38,7.14 2.38,2.37 2.38,-2.39 2.38,-7.15 2.38,-11.91 -2.38,-11.91 " />
</g>
		<g transform="matrix(1 0 0 1 0 -14.28)"  >
<polygon style="stroke: none; stroke-width: 1; stroke-dasharray: none; stroke-linecap: butt; stroke-dashoffset: 0; stroke-linejoin: miter; stroke-miterlimit: 4; fill: rgb(1,186,253); fill-rule: nonzero; opacity: 1;" vector-effect="non-scaling-stroke"  points="35.72,4.75 35.72,0 35.72,-4.77 35.72,-9.53 30.95,-9.53 26.19,-9.53 26.19,-14.29 21.43,-14.29 16.67,-14.29 11.91,-14.29 7.14,-14.29 2.38,-14.29 -2.38,-14.29 -7.14,-14.29 -11.9,-14.29 -16.66,-14.29 -21.43,-14.29 -26.19,-14.29 -26.19,-9.53 -30.95,-9.53 -35.71,-9.53 -35.71,-4.77 -35.71,0 -35.71,4.75 -35.71,9.52 -35.71,14.29 -30.95,14.29 -26.19,14.29 -26.19,9.52 -21.43,9.52 -21.43,14.29 -16.66,14.29 -11.9,14.29 -11.9,9.52 -7.14,9.52 -7.14,14.29 -2.38,14.29 2.38,14.29 2.38,9.52 7.14,9.52 7.14,14.29 11.91,14.29 16.67,14.29 16.67,9.52 21.43,9.52 21.43,14.29 26.19,14.29 30.95,14.29 35.72,14.29 35.72,9.52 35.72,4.75 " />
</g>
		<g transform="matrix(1 0 0 1 0 16.67)"  >
<polygon style="stroke: none; stroke-width: 1; stroke-dasharray: none; stroke-linecap: butt; stroke-dashoffset: 0; stroke-linejoin: miter; stroke-miterlimit: 4; fill: rgb(0,0,0); fill-rule: nonzero; opacity: 1;" vector-effect="non-scaling-stroke"  points="26.18,-16.66 21.42,-16.66 21.42,-11.91 26.18,-11.91 30.95,-11.91 30.95,-7.15 30.95,-2.39 30.95,2.38 30.95,7.14 30.95,11.9 26.18,11.9 21.42,11.9 16.66,11.9 16.66,7.14 16.66,2.38 16.66,-2.39 16.66,-7.15 16.66,-11.91 16.66,-16.66 11.91,-16.66 7.13,-16.66 7.13,-11.91 11.91,-11.91 11.91,-7.15 11.91,-2.39 11.91,2.38 11.91,7.14 11.91,11.9 7.13,11.9 7.13,7.14 7.13,2.38 7.13,-2.39 7.13,-7.15 7.13,-11.91 2.38,-11.91 2.38,-7.15 2.38,-2.39 2.38,2.38 2.38,7.14 2.38,11.9 -2.38,11.9 -2.38,7.14 -2.38,2.38 -2.38,-2.39 -2.38,-7.15 -2.38,-11.91 2.38,-11.91 2.38,-16.66 -2.38,-16.66 -7.15,-16.66 -7.15,-11.91 -7.15,-7.15 -7.15,-2.39 -7.15,2.38 -7.15,7.14 -7.15,11.9 -11.91,11.9 -16.67,11.9 -16.67,7.14 -16.67,2.38 -16.67,-2.39 -16.67,-7.15 -16.67,-11.91 -11.91,-11.91 -11.91,-16.66 -16.67,-16.66 -21.44,-16.66 -21.44,-11.91 -21.44,-7.15 -21.44,-2.39 -21.44,2.38 -21.44,7.14 -21.44,11.9 -26.2,11.9 -30.96,11.9 -30.96,7.14 -30.96,2.38 -30.96,-2.39 -30.96,-7.15 -30.96,-11.91 -26.2,-11.91 -26.2,-16.66 -30.96,-16.66 -35.72,-16.66 -35.72,-11.91 -35.72,-7.15 -35.72,-2.39 -35.72,2.38 -35.72,7.14 -35.72,11.9 -40.48,11.9 -40.48,16.66 -35.72,16.66 -30.96,16.66 -26.2,16.66 -21.44,16.66 -16.67,16.66 -11.91,16.66 -7.15,16.66 -2.38,16.66 2.38,16.66 7.13,16.66 11.91,16.66 16.66,16.66 21.42,16.66 26.18,16.66 30.95,16.66 35.71,16.66 40.48,16.66 40.48,11.9 35.71,11.9 35.71,7.14 35.71,2.38 35.71,-2.39 35.71,-7.15 35.71,-11.91 35.71,-16.66 30.95,-16.66 26.18,-16.66 " />
</g>
		<g transform="matrix(1 0 0 1 23.8 14.29)"  >
<polygon style="stroke: none; stroke-width: 1; stroke-dasharray: none; stroke-linecap: butt; stroke-dashoffset: 0; stroke-linejoin: miter; stroke-miterlimit: 4; fill: rgb(189,123,0); fill-rule: nonzero; opacity: 1;" vector-effect="non-scaling-stroke"  points="-7.14,-4.77 -7.14,-0.01 -7.14,4.76 -7.14,9.52 -7.14,14.28 -2.38,14.28 2.38,14.28 7.14,14.28 7.14,9.52 7.14,4.76 7.14,-0.01 7.14,-4.77 7.14,-9.52 2.38,-9.52 -2.38,-9.52 -2.38,-14.28 -7.14,-14.28 -7.14,-9.52 -7.14,-4.77 " />
</g>
		<g transform="matrix(1 0 0 1 19.04 -2.38)"  >
<rect style="stroke: none; stroke-width: 1; stroke-dasharray: none; stroke-linecap: butt; stroke-dashoffset: 0; stroke-linejoin: miter; stroke-miterlimit: 4; fill: rgb(0,0,0); fill-rule: nonzero; opacity: 1;" vector-effect="non-scaling-stroke"  x="-2.38" y="-2.38" rx="0" ry="0" width="4.76" height="4.76" />
</g>
		<g transform="matrix(1 0 0 1 9.52 16.67)"  >
<polygon style="stroke: none; stroke-width: 1; stroke-dasharray: none; stroke-linecap: butt; stroke-dashoffset: 0; stroke-linejoin: miter; stroke-miterlimit: 4; fill: rgb(255,224,141); fill-rule: nonzero; opacity: 1;" vector-effect="non-scaling-stroke"  points="-2.39,-2.38 -2.39,2.38 -2.39,7.15 -2.39,11.91 2.38,11.91 2.38,7.15 2.38,2.38 2.38,-2.38 2.38,-7.14 2.38,-11.9 -2.39,-11.9 -2.39,-7.14 -2.39,-2.38 " />
</g>
		<g transform="matrix(1 0 0 1 4.75 2.39)"  >
<rect style="stroke: none; stroke-width: 1; stroke-dasharray: none; stroke-linecap: butt; stroke-dashoffset: 0; stroke-linejoin: miter; stroke-miterlimit: 4; fill: rgb(255,224,141); fill-rule: nonzero; opacity: 1;" vector-effect="non-scaling-stroke"  x="-2.38" y="-2.38" rx="0" ry="0" width="4.76" height="4.76" />
</g>
		<g transform="matrix(1 0 0 1 4.75 -2.38)"  >
<rect style="stroke: none; stroke-width: 1; stroke-dasharray: none; stroke-linecap: butt; stroke-dashoffset: 0; stroke-linejoin: miter; stroke-miterlimit: 4; fill: rgb(0,0,0); fill-rule: nonzero; opacity: 1;" vector-effect="non-scaling-stroke"  x="-2.38" y="-2.38" rx="0" ry="0" width="4.76" height="4.76" />
</g>
		<g transform="matrix(1 0 0 1 0 16.67)"  >
<polygon style="stroke: none; stroke-width: 1; stroke-dasharray: none; stroke-linecap: butt; stroke-dashoffset: 0; stroke-linejoin: miter; stroke-miterlimit: 4; fill: rgb(189,123,0); fill-rule: nonzero; opacity: 1;" vector-effect="non-scaling-stroke"  points="-2.38,-7.14 -2.38,-2.38 -2.38,2.38 -2.38,7.15 -2.38,11.91 2.38,11.91 2.38,7.15 2.38,2.38 2.38,-2.38 2.38,-7.14 2.38,-11.9 -2.38,-11.9 -2.38,-7.14 " />
</g>
		<g transform="matrix(1 0 0 1 -9.53 -2.38)"  >
<rect style="stroke: none; stroke-width: 1; stroke-dasharray: none; stroke-linecap: butt; stroke-dashoffset: 0; stroke-linejoin: miter; stroke-miterlimit: 4; fill: rgb(0,0,0); fill-rule: nonzero; opacity: 1;" vector-effect="non-scaling-stroke"  x="-2.38" y="-2.38" rx="0" ry="0" width="4.76" height="4.76" />
</g>
		<g transform="matrix(1 0 0 1 -11.9 14.29)"  >
<polygon style="stroke: none; stroke-width: 1; stroke-dasharray: none; stroke-linecap: butt; stroke-dashoffset: 0; stroke-linejoin: miter; stroke-miterlimit: 4; fill: rgb(255,224,141); fill-rule: nonzero; opacity: 1;" vector-effect="non-scaling-stroke"  points="-4.76,-9.52 -4.76,-4.77 -4.76,-0.01 -4.76,4.76 -4.76,9.52 -4.76,14.28 0,14.28 4.76,14.28 4.76,9.52 4.76,4.76 4.76,-0.01 4.76,-4.77 4.76,-9.52 4.76,-14.28 0,-14.28 0,-9.52 -4.76,-9.52 " />
</g>
		<g transform="matrix(1 0 0 1 4.76 -28.57)"  >
<polygon style="stroke: none; stroke-width: 1; stroke-dasharray: none; stroke-linecap: butt; stroke-dashoffset: 0; stroke-linejoin: miter; stroke-miterlimit: 4; fill: rgb(0,0,0); fill-rule: nonzero; opacity: 1;" vector-effect="non-scaling-stroke"  points="-21.43,0 -16.66,0 -11.91,0 -7.14,0 -2.38,0 2.38,0 7.15,0 11.91,0 16.66,0 21.42,0 21.42,4.76 26.19,4.76 30.95,4.76 30.95,0 26.19,0 26.19,-4.76 21.42,-4.76 16.66,-4.76 11.91,-4.76 7.15,-4.76 2.38,-4.76 -2.38,-4.76 -7.14,-4.76 -11.91,-4.76 -16.66,-4.76 -21.43,-4.76 -26.2,-4.76 -30.95,-4.76 -30.95,0 -26.2,0 -21.43,0 " />
</g>
		<g transform="matrix(1 0 0 1 -23.82 -2.38)"  >
<rect style="stroke: none; stroke-width: 1; stroke-dasharray: none; stroke-linecap: butt; stroke-dashoffset: 0; stroke-linejoin: miter; stroke-miterlimit: 4; fill: rgb(0,0,0); fill-rule: nonzero; opacity: 1;" vector-effect="non-scaling-stroke"  x="-2.38" y="-2.38" rx="0" ry="0" width="4.76" height="4.76" />
</g>
		<g transform="matrix(1 0 0 1 -26.2 14.29)"  >
<polygon style="stroke: none; stroke-width: 1; stroke-dasharray: none; stroke-linecap: butt; stroke-dashoffset: 0; stroke-linejoin: miter; stroke-miterlimit: 4; fill: rgb(189,123,0); fill-rule: nonzero; opacity: 1;" vector-effect="non-scaling-stroke"  points="-4.76,-9.52 -4.76,-4.77 -4.76,-0.01 -4.76,4.76 -4.76,9.52 -4.76,14.28 0,14.28 4.76,14.28 4.76,9.52 4.76,4.76 4.76,-0.01 4.76,-4.77 4.76,-9.52 4.76,-14.28 0,-14.28 0,-9.52 -4.76,-9.52 " />
</g>
		<g transform="matrix(1 0 0 1 -30.96 -26.19)"  >
<polygon style="stroke: none; stroke-width: 1; stroke-dasharray: none; stroke-linecap: butt; stroke-dashoffset: 0; stroke-linejoin: miter; stroke-miterlimit: 4; fill: rgb(0,0,0); fill-rule: nonzero; opacity: 1;" vector-effect="non-scaling-stroke"  points="4.76,2.38 4.76,-2.38 0,-2.38 -4.76,-2.38 -4.76,2.38 0,2.38 4.76,2.38 " />
</g>
		<g transform="matrix(1 0 0 1 -38.09 -11.9)"  >
<polygon style="stroke: none; stroke-width: 1; stroke-dasharray: none; stroke-linecap: butt; stroke-dashoffset: 0; stroke-linejoin: miter; stroke-miterlimit: 4; fill: rgb(0,0,0); fill-rule: nonzero; opacity: 1;" vector-effect="non-scaling-stroke"  points="2.38,2.37 2.38,-2.39 2.38,-7.15 2.38,-11.91 -2.38,-11.91 -2.38,-7.15 -2.38,-2.39 -2.38,2.37 -2.38,7.14 -2.38,11.91 2.38,11.91 2.38,7.14 2.38,2.37 " />
</g>
</g>
</g>
</svg>